<?xml version="1.0" standalone="no"?>
<!DOCTYPE svg PUBLIC "-//W3C//DTD SVG 20010904//EN"
 "http://www.w3.org/TR/2001/REC-SVG-20010904/DTD/svg10.dtd">
<svg version="1.0" xmlns="http://www.w3.org/2000/svg"
 width="1007.000000pt" height="315.000000pt" viewBox="0 0 1007.000000 315.000000"
 preserveAspectRatio="xMidYMid meet">

<g transform="translate(0.000000,315.000000) scale(0.100000,-0.100000)"
fill="#000000" stroke="none">
<path d="M4409 2625 l-112 -135 -53 0 -54 0 0 55 0 55 -140 0 -140 0 0 -55 0
-55 -96 0 c-120 0 -159 -16 -185 -75 -17 -38 -19 -74 -19 -409 l0 -366 35 0
35 0 0 373 c0 204 4 377 8 383 17 26 56 34 166 34 l115 0 3 53 3 52 78 3 77 3
0 -56 0 -55 98 0 98 0 110 134 109 135 475 0 476 1 109 -135 110 -134 301 -1
c282 0 303 -1 325 -19 l24 -19 3 -376 3 -376 29 0 30 0 0 370 c0 410 -2 423
-62 460 -31 19 -50 20 -328 20 l-295 0 -110 135 -110 134 -502 1 -502 0 -112
-135z"/>
<path d="M4863 2260 c-184 -48 -328 -168 -407 -341 -38 -83 -56 -157 -56 -229
0 -48 1 -50 29 -50 28 0 28 1 35 68 21 223 164 405 376 478 200 70 424 19 575
-130 99 -97 151 -207 164 -341 l6 -70 33 -3 c30 -3 32 -1 32 26 0 69 -32 191
-69 267 -83 168 -244 293 -431 335 -71 15 -207 11 -287 -10z"/>
<path d="M5992 2194 c-38 -27 -55 -70 -42 -109 25 -76 104 -98 162 -46 27 24
33 36 33 71 0 35 -6 47 -33 71 -37 33 -84 38 -120 13z"/>
<path d="M4874 2136 c-83 -26 -221 -114 -203 -130 10 -8 502 -136 507 -132 5
5 -13 78 -54 224 l-15 52 -97 -1 c-53 0 -115 -6 -138 -13z"/>
<path d="M5140 2134 c0 -4 29 -112 65 -240 36 -128 65 -236 65 -239 0 -3 12
-5 28 -5 21 0 46 19 111 84 l84 85 -31 63 c-41 84 -136 179 -216 218 -69 33
-106 45 -106 34z"/>
<path d="M4617 1956 c-54 -71 -97 -187 -97 -263 l0 -43 73 0 72 0 130 130 c89
89 124 131 114 135 -8 3 -71 20 -141 39 l-127 34 -24 -32z"/>
<path d="M5425 1720 l-69 -70 81 0 82 0 -6 58 c-3 31 -9 63 -12 69 -4 9 -30
-11 -76 -57z"/>
<path d="M4720 1675 l-23 -25 31 0 c32 0 40 12 24 38 -6 9 -14 6 -32 -13z"/>
<path d="M3350 1195 l0 -277 128 3 c115 4 132 7 184 32 95 47 137 121 137 242
0 121 -42 195 -137 242 -52 25 -69 28 -184 32 l-128 3 0 -277z m260 214 c95
-32 144 -104 144 -214 1 -129 -67 -205 -201 -225 -39 -6 -91 -10 -115 -8 l-43
3 -3 220 c-1 121 0 226 3 234 4 11 22 13 93 8 48 -4 103 -12 122 -18z"/>
<path d="M3950 1195 c0 -267 1 -275 20 -275 18 0 20 8 22 103 l3 102 71 3 72
3 72 -102 c74 -102 86 -113 115 -107 12 2 -1 26 -55 103 l-71 99 45 23 c67 34
89 77 84 163 -3 62 -7 73 -36 103 -45 46 -88 57 -226 57 l-116 0 0 -275z m279
210 c60 -30 78 -117 38 -176 -31 -46 -79 -60 -186 -57 l-86 3 -3 114 c-1 63 0
121 3 129 8 21 189 11 234 -13z"/>
<path d="M4538 1213 c-59 -142 -110 -266 -114 -275 -5 -14 -1 -18 19 -18 22 0
29 9 53 70 l27 71 146 -3 145 -3 27 -65 c23 -54 32 -66 53 -68 18 -2 24 1 21
10 -3 7 -54 130 -114 273 -96 232 -111 260 -132 263 -22 2 -31 -14 -131 -255z
m196 37 c31 -75 56 -139 56 -143 0 -4 -55 -7 -121 -7 -114 0 -121 1 -116 19
12 48 113 279 118 273 4 -4 32 -68 63 -142z"/>
<path d="M5030 1195 c0 -267 1 -275 20 -275 18 0 20 8 22 128 l3 127 81 3 82
3 76 -131 c65 -111 80 -130 101 -130 14 0 25 2 25 4 0 2 -36 66 -81 141 -80
135 -81 137 -60 152 24 16 50 63 85 155 13 34 27 71 31 81 6 13 2 17 -18 17
-22 0 -29 -10 -62 -95 -51 -132 -96 -163 -220 -153 l-40 3 -3 123 c-2 114 -4
122 -22 122 -19 0 -20 -8 -20 -275z"/>
<path d="M5570 1195 c0 -268 0 -275 20 -275 20 0 20 7 20 275 0 268 0 275 -20
275 -20 0 -20 -7 -20 -275z"/>
<path d="M5800 1195 c0 -268 0 -275 20 -275 19 0 20 7 20 105 l0 105 73 0 72
0 75 -105 c65 -91 79 -105 104 -105 21 0 26 3 19 13 -68 89 -133 189 -128 197
3 5 13 10 20 10 22 0 81 56 95 90 17 42 8 134 -16 168 -11 15 -40 37 -64 50
-39 19 -59 22 -167 22 l-123 0 0 -275z m223 226 c83 -14 129 -81 107 -160 -18
-67 -54 -85 -182 -90 l-108 -3 0 124 c0 69 3 128 7 131 9 9 116 8 176 -2z"/>
<path d="M6490 1466 c0 -2 -51 -126 -114 -275 l-114 -271 27 0 c23 0 29 8 52
68 l26 67 145 3 145 3 31 -71 c24 -54 36 -70 51 -70 12 0 21 3 21 8 0 4 -50
127 -111 275 -102 243 -114 267 -135 267 -13 0 -24 -2 -24 -4z m90 -215 c33
-79 60 -145 60 -147 0 -2 -57 -4 -126 -4 -97 0 -125 3 -121 13 88 212 120 287
123 284 2 -2 31 -68 64 -146z"/>
<path d="M4060 657 c-66 -33 -61 -111 8 -140 20 -8 55 -21 77 -29 75 -26 69
-99 -10 -114 -39 -7 -91 17 -100 46 -7 24 -25 27 -25 5 0 -22 43 -63 74 -71
37 -9 94 4 117 27 11 11 19 33 19 53 0 43 -30 69 -106 91 -69 20 -95 52 -70
89 31 48 129 41 142 -10 3 -13 12 -24 20 -24 17 0 17 2 2 35 -22 49 -94 69
-148 42z"/>
<path d="M5825 656 c-127 -57 -116 -258 16 -298 116 -34 221 74 188 195 -24
93 -119 141 -204 103z m128 -28 c56 -29 75 -138 34 -199 -71 -105 -227 -49
-227 81 0 106 100 167 193 118z"/>
<path d="M4360 650 c0 -5 23 -10 50 -10 l50 0 0 -140 c0 -87 4 -140 10 -140 6
0 10 53 10 140 l0 140 50 0 c28 0 50 5 50 10 0 6 -43 10 -110 10 -67 0 -110
-4 -110 -10z"/>
<path d="M4740 544 c0 -126 11 -162 57 -183 50 -23 120 -3 145 42 6 12 14 75
16 140 4 103 3 117 -12 117 -14 0 -16 -16 -16 -114 0 -63 -3 -122 -6 -131 -8
-19 -55 -45 -84 -45 -12 0 -35 13 -51 29 -29 29 -29 31 -29 145 0 71 -4 116
-10 116 -6 0 -10 -45 -10 -116z"/>
<path d="M5140 510 l0 -150 60 0 c70 0 115 16 150 55 22 23 25 36 25 95 0 59
-3 72 -25 95 -35 39 -80 55 -150 55 l-60 0 0 -150z m150 112 c20 -10 42 -32
52 -52 50 -99 -16 -190 -137 -190 l-45 0 0 130 0 130 48 0 c26 0 63 -8 82 -18z"/>
<path d="M5550 510 c0 -93 4 -150 10 -150 6 0 10 57 10 150 0 93 -4 150 -10
150 -6 0 -10 -57 -10 -150z"/>
<path d="M6430 517 c0 -16 71 -17 928 -17 510 0 971 -3 1025 -7 86 -5 97 -4
97 10 0 16 -68 17 -867 17 -478 0 -939 3 -1025 7 -143 6 -158 5 -158 -10z"/>
<path d="M1560 503 c0 -15 18 -16 203 -10 111 4 572 7 1025 7 541 0 822 3 822
10 0 7 -348 10 -1025 10 -948 0 -1025 -1 -1025 -17z"/>
</g>
</svg>
